<?xml version="1.0" standalone="no"?>
<!DOCTYPE svg PUBLIC "-//W3C//DTD SVG 20010904//EN"
 "http://www.w3.org/TR/2001/REC-SVG-20010904/DTD/svg10.dtd">
<svg version="1.0" xmlns="http://www.w3.org/2000/svg"
 width="1024.000000pt" height="1024.000000pt" viewBox="0 0 1024.000000 1024.000000"
 preserveAspectRatio="xMidYMid meet">

<g transform="translate(0.000000,1024.000000) scale(0.100000,-0.100000)"
fill="#000000" stroke="none">
<path d="M5040 9820 c-137 -14 -235 -65 -339 -175 -190 -204 -203 -506 -31
-724 23 -29 40 -54 38 -55 -1 -2 -43 -8 -93 -15 -278 -39 -657 -145 -825 -231
l-40 -20 -26 52 c-109 214 -335 419 -585 528 -137 61 -245 82 -439 87 -152 4
-189 2 -279 -17 -256 -52 -456 -164 -640 -355 -313 -327 -419 -809 -270 -1231
87 -248 235 -448 455 -616 89 -67 92 -71 79 -92 -27 -41 -118 -263 -160 -391
-52 -157 -86 -289 -116 -448 l-22 -119 -36 35 c-104 99 -216 148 -353 155
-141 7 -245 -26 -358 -113 -212 -163 -279 -459 -159 -698 44 -87 153 -193 246
-239 176 -88 394 -73 561 38 35 24 66 44 67 44 2 0 6 -28 10 -62 30 -293 91
-559 186 -813 40 -105 41 -110 23 -123 -188 -133 -297 -237 -383 -365 -213
-318 -264 -700 -142 -1066 138 -412 498 -720 929 -796 112 -19 303 -19 417 1
292 50 546 204 736 444 34 44 64 80 66 80 2 0 34 -15 71 -34 198 -100 460
-192 697 -246 121 -27 343 -70 368 -70 4 0 -13 -26 -39 -57 -149 -183 -165
-453 -39 -669 66 -113 218 -223 360 -259 69 -18 202 -20 277 -4 165 34 321
157 398 311 45 94 60 158 60 264 0 138 -40 254 -123 356 l-46 57 47 6 c286 39
702 154 935 259 32 14 62 26 66 26 5 0 33 -33 62 -72 177 -247 476 -431 774
-479 109 -17 301 -15 408 5 490 93 877 483 962 970 53 307 -31 662 -217 914
-66 89 -181 204 -262 262 l-75 53 16 36 c54 124 117 293 147 396 63 221 85
335 122 632 l5 42 48 -34 c108 -78 239 -113 377 -101 233 19 429 188 489 421
50 197 -33 431 -202 565 -209 165 -503 161 -696 -11 l-54 -48 -7 47 c-13 94
-79 360 -123 492 -44 132 -125 333 -146 358 -5 7 -8 14 -6 15 2 2 38 26 79 52
153 100 322 297 413 480 191 386 145 889 -113 1233 -342 458 -979 613 -1483
362 -179 -90 -361 -248 -466 -405 -29 -44 -55 -82 -56 -84 -2 -1 -34 11 -71
29 -270 127 -612 223 -953 265 l-53 7 45 47 c90 92 137 214 137 351 0 159 -51
281 -165 396 -130 132 -284 183 -485 164z m171 -194 c148 -34 262 -160 289
-319 27 -151 -63 -310 -221 -394 -50 -26 -63 -28 -164 -28 -103 0 -113 2 -164
30 -223 123 -280 414 -118 591 103 113 234 154 378 120z m-2291 -564 c205 -55
351 -141 494 -292 66 -71 166 -213 166 -237 0 -6 -33 -29 -72 -50 -177 -96
-370 -227 -544 -369 l-100 -82 -155 152 c-84 83 -276 269 -426 414 l-272 262
35 28 c103 82 248 147 405 182 123 26 353 22 469 -8z m4871 -87 c109 -19 213
-55 308 -106 87 -46 184 -116 179 -129 -2 -5 -165 -177 -364 -382 -198 -205
-372 -386 -386 -402 l-25 -30 -84 75 c-171 151 -411 324 -589 424 -47 26 -86
49 -88 50 -1 1 24 38 56 81 69 93 184 204 272 264 115 78 284 145 415 163 71
10 229 6 306 -8z m-5556 -579 c138 -132 305 -293 372 -359 l122 -119 -106
-117 c-177 -193 -355 -430 -449 -598 -16 -29 -32 -53 -36 -53 -17 0 -133 99
-213 182 -189 196 -280 410 -292 683 -10 252 58 472 209 673 l40 53 52 -53
c28 -29 164 -161 301 -292z m3176 293 c237 -24 535 -86 753 -156 109 -35 314
-117 328 -131 5 -5 -3 -42 -17 -83 -94 -274 -64 -603 80 -889 177 -350 517
-596 899 -649 164 -23 381 -7 529 39 38 12 70 20 72 18 6 -6 46 -101 86 -206
84 -220 147 -468 186 -727 25 -172 25 -677 0 -855 -34 -242 -103 -504 -189
-724 -28 -72 -52 -132 -53 -134 -2 -2 -41 10 -86 26 -232 81 -517 86 -748 12
-76 -24 -226 -99 -299 -149 -295 -202 -483 -514 -522 -863 -19 -167 7 -378 64
-518 14 -36 22 -68 18 -72 -4 -4 -63 -29 -132 -56 -400 -159 -846 -244 -1265
-244 -390 1 -793 75 -1159 212 -145 54 -306 125 -306 135 0 4 16 53 34 108
201 590 -47 1199 -600 1475 -84 42 -228 89 -332 107 -178 31 -426 13 -568 -40
-59 -22 -64 -23 -73 -7 -18 36 -102 306 -131 422 -151 622 -102 1341 132 1920
40 99 102 235 112 247 1 1 31 -6 66 -17 183 -54 449 -67 631 -30 251 51 428
150 615 342 105 107 156 180 224 316 89 179 125 333 124 532 -1 131 -19 246
-54 338 l-19 51 102 39 c263 103 540 170 847 206 141 17 511 20 651 5z m3096
-213 c144 -269 170 -548 78 -831 -50 -153 -121 -264 -255 -401 -71 -72 -186
-163 -194 -153 -1 2 -31 54 -66 114 -99 172 -235 358 -382 524 l-66 75 396
404 397 404 27 -33 c15 -18 44 -64 65 -103z m-4833 -201 c42 -174 39 -327 -10
-500 -85 -297 -278 -531 -545 -659 -166 -80 -373 -117 -551 -98 -118 13 -258
42 -258 54 0 16 137 225 216 330 175 233 346 408 578 595 188 150 531 374 546
356 4 -5 14 -39 24 -78z m3098 -21 c140 -85 281 -183 403 -281 144 -115 390
-361 491 -493 126 -162 304 -436 304 -466 0 -5 -28 -17 -62 -26 -363 -95 -747
1 -990 249 -153 155 -238 308 -290 522 -28 112 -30 325 -5 418 18 68 43 133
51 133 3 0 47 -25 98 -56z m-5342 -2245 c145 -33 269 -172 289 -324 17 -127
-25 -250 -116 -336 -239 -226 -625 -76 -650 254 -15 200 113 370 311 412 62
13 85 12 166 -6z m7536 10 c127 -23 229 -104 287 -227 29 -61 32 -75 32 -167
0 -88 -3 -107 -27 -157 -37 -80 -107 -152 -187 -191 -61 -30 -73 -32 -166 -32
-87 0 -107 3 -157 27 -80 37 -152 107 -191 187 -30 62 -32 72 -32 176 0 98 3
116 27 167 52 111 147 187 268 214 71 16 75 16 146 3z m-6166 -1850 c169 -43
334 -130 452 -238 127 -116 212 -252 272 -431 59 -178 69 -332 31 -508 -14
-67 -59 -209 -69 -220 -9 -8 -50 13 -155 81 -454 291 -862 730 -1086 1168 -30
59 -55 110 -55 112 0 10 105 40 185 53 113 19 316 11 425 -17z m4986 -79 c67
-12 195 -49 207 -59 9 -9 -80 -169 -160 -288 -178 -264 -463 -562 -730 -762
-93 -69 -279 -191 -366 -239 l-57 -32 -11 27 c-47 119 -74 292 -66 417 30 450
380 851 812 931 86 16 291 19 371 5z m-5702 -143 c103 -197 214 -366 354 -540
l55 -68 -35 -37 c-352 -377 -712 -752 -721 -752 -2 0 -20 24 -40 53 -113 171
-168 361 -168 577 0 273 93 513 272 705 62 66 194 174 214 174 6 0 36 -50 69
-112z m6204 -93 c157 -148 253 -306 309 -513 24 -85 26 -114 27 -261 0 -138
-4 -178 -21 -242 -44 -156 -117 -296 -213 -408 l-30 -35 -87 90 c-48 50 -220
224 -382 387 l-295 297 75 78 c41 43 105 116 142 163 81 100 258 364 313 467
21 40 44 73 50 73 6 0 56 -43 112 -96z m-5495 -812 c174 -156 369 -300 525
-391 39 -23 72 -47 72 -52 0 -19 -214 -225 -275 -264 -201 -131 -389 -183
-625 -172 -212 10 -389 74 -567 204 l-62 46 36 41 c20 23 111 118 202 211 92
94 247 254 345 357 l178 187 29 -34 c17 -18 80 -79 142 -133z m5060 -380 c352
-353 376 -380 360 -394 -34 -29 -163 -99 -230 -124 -162 -61 -329 -81 -490
-59 -248 34 -444 133 -610 308 -103 108 -131 148 -113 159 257 148 444 275
604 410 50 42 93 77 96 78 3 0 175 -170 383 -378z m-2633 -518 c161 -36 280
-162 311 -328 48 -262 -209 -512 -479 -468 -131 22 -238 103 -302 229 -34 65
-35 72 -35 178 1 100 3 115 29 168 91 184 271 268 476 221z"/>
<path d="M5019 8422 c-206 -55 -327 -258 -275 -462 31 -118 99 -199 216 -254
57 -27 75 -30 155 -30 80 0 97 3 157 31 137 64 217 177 226 317 6 95 -10 161
-58 236 -90 137 -262 204 -421 162z m179 -178 c107 -44 160 -168 117 -272 -69
-163 -313 -168 -386 -8 -77 169 98 352 269 280z"/>
<path d="M5106 7312 c-9 -14 -35 -173 -81 -487 -25 -170 -54 -368 -65 -440
-143 -945 -139 -908 -98 -990 30 -58 57 -85 115 -114 83 -41 129 -39 478 29
422 81 624 122 830 165 94 20 183 39 198 42 35 7 32 34 -4 44 -15 3 -269 51
-565 105 -297 54 -540 99 -542 100 -3 2 -100 669 -188 1288 -19 138 -37 254
-40 258 -7 10 -31 10 -38 0z"/>
<path d="M2490 5891 c-85 -26 -173 -101 -212 -180 -19 -39 -23 -62 -23 -146 0
-84 4 -108 23 -146 37 -75 87 -125 164 -163 62 -31 80 -36 144 -36 134 0 245
65 309 182 28 49 30 60 30 158 0 98 -2 109 -30 158 -38 70 -112 136 -181 161
-56 22 -172 27 -224 12z m181 -167 c99 -50 130 -187 62 -273 -43 -53 -87 -73
-155 -68 -151 9 -223 190 -120 301 58 61 140 77 213 40z"/>
<path d="M7539 5886 c-86 -31 -164 -102 -203 -185 -32 -70 -30 -217 4 -286 31
-64 101 -134 165 -165 42 -21 64 -25 145 -25 84 0 102 3 151 28 63 31 126 93
160 159 34 66 38 194 8 273 -30 81 -112 164 -192 193 -67 25 -180 29 -238 8z
m189 -160 c84 -44 124 -153 88 -239 -16 -38 -76 -94 -112 -103 -78 -20 -175
20 -209 85 -49 95 -11 218 80 257 40 17 119 18 153 0z"/>
<path d="M5040 3421 c-187 -38 -323 -222 -307 -415 16 -182 156 -331 333 -354
210 -27 405 118 432 323 10 79 -2 176 -28 231 -75 154 -263 248 -430 215z
m209 -209 c71 -57 103 -174 70 -259 -27 -71 -119 -132 -201 -133 -60 0 -88 11
-137 55 -103 94 -93 265 21 342 72 48 184 46 247 -5z"/>
</g>
</svg>
